<svg width="60" height="60" viewBox="0 0 60 60" fill="none" xmlns="http://www.w3.org/2000/svg">
<g clip-path="url(#clip0_1_2)">
<path d="M0 30V0H60V60H0" fill="#202020"/>
<g clip-path="url(#clip1_1_2)">
<path d="M28.2808 41.562C27.9018 40.0121 26.976 38.9292 25.5034 38.3133C24.6804 37.9746 23.7655 37.8052 22.7585 37.8052C20.8311 37.8052 19.2447 38.4981 17.9995 39.8837C16.7651 41.2592 16.1479 43.3326 16.1479 46.104C16.1479 48.8959 16.8192 50.8718 18.1619 52.0316C19.5046 53.1915 21.0314 53.7715 22.7422 53.7715C24.4206 53.7715 25.7958 53.3147 26.8677 52.4012C27.9397 51.4774 28.6002 50.2713 28.8493 48.7829H23.3107V44.9954H33.2834V57.1741H29.97L29.4665 54.3411C28.5028 55.4189 27.6366 56.1785 26.8677 56.6198C25.5467 57.3896 23.9225 57.7746 21.9951 57.7746C18.8225 57.7746 16.2237 56.7327 14.1988 54.6491C12.0874 52.5551 11.0316 49.6914 11.0316 46.0578C11.0316 42.3832 12.0982 39.4373 14.2313 37.2202C16.3644 35.0031 19.1852 33.8945 22.6935 33.8945C25.7362 33.8945 28.178 34.6284 30.0187 36.0962C31.8704 37.5537 32.9315 39.3757 33.2022 41.562H28.2808Z" fill="white"/>
</g>
<path d="M50.9286 34.425H57.9V58.05H53.3835V42.0702C53.3835 41.6108 53.3888 40.9697 53.3993 40.1469C53.4097 39.3135 53.415 38.6724 53.415 38.2236L49.0244 58.05H44.3191L39.96 38.2236C39.96 38.6724 39.9652 39.3135 39.9757 40.1469C39.9862 40.9697 39.9914 41.6108 39.9914 42.0702V58.05H35.475V34.425H42.5251L46.7426 53.0012L50.9286 34.425Z" fill="white"/>
</g>
<defs>
<clipPath id="clip0_1_2">
<rect width="60" height="60" rx="8" fill="white"/>
</clipPath>
<clipPath id="clip1_1_2">
<rect width="23.1" height="24.525" fill="white" transform="translate(10.575 33.525)"/>
</clipPath>
</defs>
</svg>
